<svg xmlns="http://www.w3.org/2000/svg" viewBox="0 0 100 100" width="100" height="100">
  <defs>
    <linearGradient id="blueGradient" x1="0%" y1="0%" x2="100%" y2="100%">
      <stop offset="0%" stop-color="#1E40AF" />
      <stop offset="100%" stop-color="#3B82F6" />
    </linearGradient>
    <linearGradient id="emeraldGradient" x1="0%" y1="100%" x2="100%" y2="0%">
      <stop offset="0%" stop-color="#059669" />
      <stop offset="100%" stop-color="#10B981" />
    </linearGradient>
  </defs>
  <path d="M 50 5 L 90 28 L 90 72 L 50 95 L 10 72 L 10 28 Z" fill="url(#blueGradient)" />
  <path d="M 50 95 L 50 50 L 90 28" fill="none" stroke="#FFFFFF" stroke-width="2" stroke-dasharray="3 3" opacity="0.4"/>
  <path d="M 10 28 L 50 50" fill="none" stroke="#FFFFFF" stroke-width="2" stroke-dasharray="3 3" opacity="0.4"/>
  <path d="M 25 50 C 25 35, 45 25, 50 45 C 55 65, 75 55, 75 40" fill="none" stroke="url(#emeraldGradient)" stroke-width="6" stroke-linecap="round"/>
  <circle cx="25" cy="50" r="5" fill="#10B981" stroke="#FFFFFF" stroke-width="2" />
  <circle cx="75" cy="40" r="5" fill="#10B981" stroke="#FFFFFF" stroke-width="2" />
  <circle cx="50" cy="27" r="7" fill="#FFFFFF" />
  <path d="M 37 72 C 37 58, 43 54, 50 54 C 57 54, 63 58, 63 72 Z" fill="#FFFFFF" />
  <circle cx="50" cy="45" r="4" fill="#FFFFFF" />
</svg>
